# Blender v2.82 (sub 7) OBJ File: ''
# www.blender.org
mtllib torus.mtl
o BezierCircle
v -1.000000 0.000000 0.000000
v -0.990868 0.000000 -0.135661
v -0.964268 0.000000 -0.265784
v -0.921393 0.000000 -0.389178
v -0.863435 0.000000 -0.504648
v -0.791589 0.000000 -0.611002
v -0.707047 0.000000 -0.707047
v -0.611002 0.000000 -0.791589
v -0.504648 0.000000 -0.863435
v -0.389178 0.000000 -0.921393
v -0.265784 0.000000 -0.964268
v -0.135661 0.000000 -0.990868
v 0.000000 0.000000 -1.000000
v 0.135661 0.000000 -0.990868
v 0.265784 0.000000 -0.964268
v 0.389178 0.000000 -0.921393
v 0.504648 0.000000 -0.863435
v 0.611002 0.000000 -0.791589
v 0.707047 0.000000 -0.707047
v 0.791589 0.000000 -0.611002
v 0.863435 0.000000 -0.504648
v 0.921393 0.000000 -0.389178
v 0.964268 0.000000 -0.265784
v 0.990868 0.000000 -0.135661
v 1.000000 0.000000 0.000000
v 0.990868 0.000000 0.135661
v 0.964268 0.000000 0.265784
v 0.921393 0.000000 0.389178
v 0.863435 0.000000 0.504648
v 0.791589 0.000000 0.611002
v 0.707047 0.000000 0.707047
v 0.611002 0.000000 0.791589
v 0.504648 0.000000 0.863435
v 0.389178 0.000000 0.921393
v 0.265784 0.000000 0.964268
v 0.135661 0.000000 0.990868
v 0.000000 0.000000 1.000000
v -0.135661 0.000000 0.990868
v -0.265784 0.000000 0.964268
v -0.389178 0.000000 0.921393
v -0.504648 0.000000 0.863435
v -0.611002 0.000000 0.791589
v -0.707047 0.000000 0.707047
v -0.791589 0.000000 0.611002
v -0.863435 0.000000 0.504648
v -0.921393 0.000000 0.389178
v -0.964268 0.000000 0.265784
v -0.990868 0.000000 0.135661
l 1 2
l 2 3
l 3 4
l 4 5
l 5 6
l 6 7
l 7 8
l 8 9
l 9 10
l 10 11
l 11 12
l 12 13
l 13 14
l 14 15
l 15 16
l 16 17
l 17 18
l 18 19
l 19 20
l 20 21
l 21 22
l 22 23
l 23 24
l 24 25
l 25 26
l 26 27
l 27 28
l 28 29
l 29 30
l 30 31
l 31 32
l 32 33
l 33 34
l 34 35
l 35 36
l 36 37
l 37 38
l 38 39
l 39 40
l 40 41
l 41 42
l 42 43
l 43 44
l 44 45
l 45 46
l 46 47
l 47 48
l 48 1
o Circle
v 0.000000 1.000000 0.000000
v -0.195090 0.980785 0.000000
v -0.382683 0.923880 0.000000
v -0.555570 0.831470 0.000000
v -0.707107 0.707107 0.000000
v -0.831470 0.555570 0.000000
v -0.923880 0.382683 0.000000
v -0.980785 0.195090 0.000000
v -1.000000 0.000000 0.000000
v -0.980785 -0.195090 -0.000000
v -0.923880 -0.382683 -0.000000
v -0.831470 -0.555570 -0.000000
v -0.707107 -0.707107 -0.000000
v -0.555570 -0.831470 -0.000000
v -0.382683 -0.923880 -0.000000
v -0.195090 -0.980785 -0.000000
v 0.000000 -1.000000 -0.000000
v 0.195091 -0.980785 -0.000000
v 0.382684 -0.923879 -0.000000
v 0.555571 -0.831469 -0.000000
v 0.707107 -0.707106 -0.000000
v 0.831470 -0.555570 -0.000000
v 0.923880 -0.382683 -0.000000
v 0.980785 -0.195089 -0.000000
v 1.000000 0.000001 0.000000
v 0.980785 0.195091 0.000000
v 0.923879 0.382684 0.000000
v 0.831469 0.555571 0.000000
v 0.707106 0.707108 0.000000
v 0.555569 0.831470 0.000000
v 0.382682 0.923880 0.000000
v 0.195089 0.980786 0.000000
v 0.510945 0.779914 0.000000
v 0.295658 0.820184 0.000000
v 0.069521 0.826371 0.000000
v -0.158779 0.798236 0.000000
v -0.380467 0.736862 0.000000
v -0.587024 0.644607 0.000000
v -0.770512 0.525015 0.000000
v 0.621431 0.596628 0.000000
v 0.388106 0.611769 0.000000
v 0.140463 0.600412 0.000000
v -0.111986 0.562996 0.000000
v -0.359538 0.500956 0.000000
v -0.592678 0.416678 0.000000
v -0.802448 0.313400 0.000000
v 0.709317 0.383974 0.000000
v 0.467872 0.368620 0.000000
v 0.208825 0.337210 0.000000
v -0.057874 0.290954 0.000000
v -0.321973 0.231628 0.000000
v -0.573323 0.161512 0.000000
v -0.802264 0.083301 0.000000
v 0.770598 0.153282 0.000000
v 0.530797 0.105583 0.000000
v 0.270599 0.053826 0.000000
v 0.000000 0.000000 0.000000
v -0.270598 -0.053825 -0.000000
v -0.530797 -0.105582 -0.000000
v -0.770598 -0.153281 -0.000000
v 0.802264 -0.083300 -0.000000
v 0.573323 -0.161511 -0.000000
v 0.321974 -0.231627 -0.000000
v 0.057875 -0.290953 -0.000000
v -0.208824 -0.337210 -0.000000
v -0.467873 -0.368619 -0.000000
v -0.709318 -0.383973 -0.000000
v 0.802448 -0.313399 -0.000000
v 0.592678 -0.416677 -0.000000
v 0.359538 -0.500956 -0.000000
v 0.111987 -0.562995 -0.000000
v -0.140462 -0.600412 -0.000000
v -0.388107 -0.611768 -0.000000
v -0.621432 -0.596627 -0.000000
v 0.770512 -0.525015 -0.000000
v 0.587025 -0.644606 -0.000000
v 0.380468 -0.736862 -0.000000
v 0.158780 -0.798236 -0.000000
v -0.069521 -0.826370 -0.000000
v -0.295659 -0.820183 -0.000000
v -0.510946 -0.779913 -0.000000
vt 0.000000 0.000000
vt 0.000000 0.000000
vt 0.000000 0.000000
vt 0.000000 0.000000
vt 0.000000 0.000000
vt 0.000000 0.000000
vt 0.000000 0.000000
vt 0.000000 0.000000
vt 0.000000 0.000000
vt 0.000000 0.000000
vt 0.000000 0.000000
vt 0.000000 0.000000
vt 0.000000 0.000000
vt 0.000000 0.000000
vt 0.000000 0.000000
vt 0.000000 0.000000
vt 0.000000 0.000000
vt 0.000000 0.000000
vt 0.000000 0.000000
vt 0.000000 0.000000
vt 0.000000 0.000000
vt 0.000000 0.000000
vt 0.000000 0.000000
vt 0.000000 0.000000
vt 0.000000 0.000000
vt 0.000000 0.000000
vt 0.000000 0.000000
vt 0.000000 0.000000
vt 0.000000 0.000000
vt 0.000000 0.000000
vt 0.000000 0.000000
vt 0.000000 0.000000
vt 0.000000 0.000000
vt 0.000000 0.000000
vt 0.000000 0.000000
vt 0.000000 0.000000
vt 0.000000 0.000000
vt 0.000000 0.000000
vt 0.000000 0.000000
vt 0.000000 0.000000
vt 0.000000 0.000000
vt 0.000000 0.000000
vt 0.000000 0.000000
vt 0.000000 0.000000
vt 0.000000 0.000000
vt 0.000000 0.000000
vt 0.000000 0.000000
vt 0.000000 0.000000
vt 0.000000 0.000000
vt 0.000000 0.000000
vt 0.000000 0.000000
vt 0.000000 0.000000
vt 0.000000 0.000000
vt 0.000000 0.000000
vt 0.000000 0.000000
vt 0.000000 0.000000
vt 0.000000 0.000000
vt 0.000000 0.000000
vt 0.000000 0.000000
vt 0.000000 0.000000
vt 0.000000 0.000000
vt 0.000000 0.000000
vt 0.000000 0.000000
vt 0.000000 0.000000
vt 0.000000 0.000000
vt 0.000000 0.000000
vt 0.000000 0.000000
vt 0.000000 0.000000
vt 0.000000 0.000000
vt 0.000000 0.000000
vt 0.000000 0.000000
vt 0.000000 0.000000
vt 0.000000 0.000000
vt 0.000000 0.000000
vt 0.000000 0.000000
vt 0.000000 0.000000
vt 0.000000 0.000000
vt 0.000000 0.000000
vt 0.000000 0.000000
vt 0.000000 0.000000
vt 0.000000 0.000000
vn 0.0000 -0.0000 1.0000
usemtl None
s off
f 79/1/1 81/2/1 77/3/1 78/4/1
f 81/2/1 88/5/1 76/6/1 77/3/1
f 88/5/1 95/7/1 75/8/1 76/6/1
f 95/7/1 102/9/1 74/10/1 75/8/1
f 102/9/1 109/11/1 73/12/1 74/10/1
f 109/11/1 116/13/1 72/14/1 73/12/1
f 116/13/1 123/15/1 71/16/1 72/14/1
f 123/15/1 69/17/1 70/18/1 71/16/1
f 80/19/1 82/20/1 81/2/1 79/1/1
f 82/20/1 89/21/1 88/5/1 81/2/1
f 89/21/1 96/22/1 95/7/1 88/5/1
f 96/22/1 103/23/1 102/9/1 95/7/1
f 103/23/1 110/24/1 109/11/1 102/9/1
f 110/24/1 117/25/1 116/13/1 109/11/1
f 117/25/1 124/26/1 123/15/1 116/13/1
f 124/26/1 68/27/1 69/17/1 123/15/1
f 49/28/1 83/29/1 82/20/1 80/19/1
f 83/29/1 90/30/1 89/21/1 82/20/1
f 90/30/1 97/31/1 96/22/1 89/21/1
f 97/31/1 104/32/1 103/23/1 96/22/1
f 104/32/1 111/33/1 110/24/1 103/23/1
f 111/33/1 118/34/1 117/25/1 110/24/1
f 118/34/1 125/35/1 124/26/1 117/25/1
f 125/35/1 67/36/1 68/27/1 124/26/1
f 50/37/1 84/38/1 83/29/1 49/28/1
f 84/38/1 91/39/1 90/30/1 83/29/1
f 91/39/1 98/40/1 97/31/1 90/30/1
f 98/40/1 105/41/1 104/32/1 97/31/1
f 105/41/1 112/42/1 111/33/1 104/32/1
f 112/42/1 119/43/1 118/34/1 111/33/1
f 119/43/1 126/44/1 125/35/1 118/34/1
f 126/44/1 66/45/1 67/36/1 125/35/1
f 51/46/1 85/47/1 84/38/1 50/37/1
f 85/47/1 92/48/1 91/39/1 84/38/1
f 92/48/1 99/49/1 98/40/1 91/39/1
f 99/49/1 106/50/1 105/41/1 98/40/1
f 106/50/1 113/51/1 112/42/1 105/41/1
f 113/51/1 120/52/1 119/43/1 112/42/1
f 120/52/1 127/53/1 126/44/1 119/43/1
f 127/53/1 65/54/1 66/45/1 126/44/1
f 52/55/1 86/56/1 85/47/1 51/46/1
f 86/56/1 93/57/1 92/48/1 85/47/1
f 93/57/1 100/58/1 99/49/1 92/48/1
f 100/58/1 107/59/1 106/50/1 99/49/1
f 107/59/1 114/60/1 113/51/1 106/50/1
f 114/60/1 121/61/1 120/52/1 113/51/1
f 121/61/1 128/62/1 127/53/1 120/52/1
f 128/62/1 64/63/1 65/54/1 127/53/1
f 53/64/1 87/65/1 86/56/1 52/55/1
f 87/65/1 94/66/1 93/57/1 86/56/1
f 94/66/1 101/67/1 100/58/1 93/57/1
f 101/67/1 108/68/1 107/59/1 100/58/1
f 108/68/1 115/69/1 114/60/1 107/59/1
f 115/69/1 122/70/1 121/61/1 114/60/1
f 122/70/1 129/71/1 128/62/1 121/61/1
f 129/71/1 63/72/1 64/63/1 128/62/1
f 54/73/1 55/74/1 87/65/1 53/64/1
f 55/74/1 56/75/1 94/66/1 87/65/1
f 56/75/1 57/76/1 101/67/1 94/66/1
f 57/76/1 58/77/1 108/68/1 101/67/1
f 58/77/1 59/78/1 115/69/1 108/68/1
f 59/78/1 60/79/1 122/70/1 115/69/1
f 60/79/1 61/80/1 129/71/1 122/70/1
f 61/80/1 62/81/1 63/72/1 129/71/1
